<?xml version="1.0" encoding="UTF-8"?>
<svg id="Layer_1" data-name="Layer 1" xmlns="http://www.w3.org/2000/svg" viewBox="0 0 512.45 199.07">
  <defs>
    <style>
      .cls-1 {
        fill: #e6e6e6;
      }

      .cls-2 {
        fill: #84bb44;
      }

      .cls-3 {
        fill: #fff;
      }

      .cls-4 {
        fill: #99ca3c;
      }
    </style>
  </defs>
  <path class="cls-3" d="M29.8,150.17c9.8,17,24.4,25.3,43.8,24.4,22-1,40.6-20.6,41.9-42.5,1.3-21.6-13.9-42-35.7-47-2.1-.5-2.9-1.3-2.9-3.5.1-6.4,0-12.8,0-19.2,0-1-.5-2.5,1.3-2.7,1.6-.2,1.9,1.1,2.2,2.2,1.2,3.7,1.4,8.2,3.8,10.8,2.3,2.5,6.9,2.7,10.1,4.6,3.7,2.3,6.5,1.5,10-.6,8.3-5,6.3-5.7,13.9,1.6,2.3,2.2,4.5,4.5,6.8,6.8,1.2,1.2,1.4,2.4.6,3.9-1.7,3.1-3.2,6.2-4.9,9.2-.8,1.3-.7,2.4,0,3.8,2,3.5,3.5,7.1,4.6,10.9.5,1.7,1.4,2.3,3,2.7,3.1.8,6.1,1.8,9.2,2.6,1.8.5,2.5,1.5,2.5,3.3v15.4c0,1.8-.7,2.9-2.5,3.3-3.1.8-6.1,1.9-9.2,2.6-1.6.4-2.5,1.2-2.9,2.8-1.1,3.9-2.7,7.7-4.7,11.2-.8,1.4-.7,2.5,0,3.8,1.6,2.8,2.9,5.7,4.5,8.5,1.1,1.8.7,3.2-.7,4.6-3.5,3.4-6.9,6.8-10.3,10.3-1.4,1.5-2.9,1.7-4.7.6-2.7-1.6-5.5-3-8.1-4.5-1.5-.9-2.7-1-4.3-.1-3.4,1.9-6.9,3.4-10.7,4.4-1.6.4-2.4,1.4-2.8,2.9-.8,3.1-1.9,6.1-2.7,9.2-.5,1.8-1.5,2.6-3.3,2.6h-15.1c-1.8,0-2.8-.9-3.2-2.7-.8-3-1.9-5.9-2.7-8.9-.4-1.7-1.2-2.7-3-3.1-3.8-1-7.3-2.5-10.7-4.5-1.4-.8-2.6-.8-4,0-2.8,1.7-5.8,3.2-8.6,4.8-1.6.9-2.8.9-4.1-.5-3.6-3.7-7.2-7.3-10.9-10.9-1.3-1.3-1.5-2.5-.6-4.1,1.6-2.9,3.1-5.8,4.7-8.7.8-1.3.7-2.4,0-3.8-2-3.7-3.7-7.4-4.9-11.5-.4-1.5-1.3-2.2-2.8-2.6-3.1-.8-6.1-1.8-9.2-2.6-1.8-.5-2.5-1.5-2.5-3.3v-15.4c0-2,.9-3,2.7-3.4,3-.7,6-1.7,9-2.5,1.5-.4,2.3-1.1,2.8-2.6,1.2-4.1,2.9-8,5.1-11.7.7-1.2.4-2.1-.2-3.2-1.6-3-3.1-6-4.8-9-.9-1.7-.9-3,.5-4.4,3.7-3.5,7.3-7,10.8-10.5,1.6-1.5,3.1-1.6,4.9-.5,2.5,1.6,5.3,2.9,7.8,4.5,1.4.9,2.6,1,4,.2,3.5-1.9,7.2-3.4,11-4.5,1.6-.4,2.4-1.3,2.8-2.9.8-3.2,1.8-6.3,2.8-9.5.3-1.1.6-2.1,2-2.2,1.6,0,1.6,1.4,1.6,2.3.1,7.1.2,14.1.2,21.2,0,1.4-1.1,1.6-2.2,1.9-18.2,4.5-30.1,15.7-35.1,33.8-3,10.8-1.4,21.3,3.8,31.4l.3.5Z"/>
  <path class="cls-2" d="M73.3,84.17c0,12.4,0,24.5.4,36.6,0,2.2-.2,4.1-2.6,4.9-2.5.9-4.6-1-4.6-4.3v-20.6c0-11.3,0-22.7.1-34,0-5.3-1.9-10-4-14.7-.8-1.9-2.3-2-4-2-8.6,0-16.5-2.1-23.1-7.9-3.3-2.8-5.7-6.4-7.6-10.2-2.9-5.9-5.9-11.8-11-16.2-.3-.2-.4-.6-.9-1.4,12-3.6,23.5-3.4,34.4,2.5,10.1,5.4,15.2,14.3,15.8,25.8-4.4-5.1-8.8-10-15.2-12.7,7.3,6,13.1,13.3,18,22.3,5.7-13.2,13.8-23.6,24.9-31.6-9.8,4.4-17.1,11.6-23.1,20.5-.4-2.6-.4-5.1.1-7.5,3.7-18,15.4-28,32.6-32.2,7.7-1.9,15.5-1.8,23.3-.6,1.2.2,2.4.6,3.4.8.4.8.2,1.2-.2,1.6-5.4,5.3-8.8,11.8-11.4,18.7-6.6,17.7-19.7,26.1-38.1,27.2-2.4.1-3.6,1-4.4,3.2-2.3,5.8-3.2,11.7-3,17.9.1,4.5,0,9.1,0,13.9h.2Z"/>
  <path class="cls-1" d="M62.6,93.87c-13.5,3.7-22.9,11.6-27.2,24.9-7.2,22.2,9.6,45.6,32.9,46.7,18.7.9,34.6-12.8,37.5-30.7,2.8-17.5-8-34.6-25.2-39.9-4.2-1.3-4.5-1.8-3.4-6.5.8-.5,1.6-.2,2.5,0,20.4,5.1,33.7,23.4,32.3,44.5-1.3,19.4-17.5,35.7-36.9,38.2-20.3,2.6-43.2-10.9-46.8-35.5-3.4-23.4,11.9-42.5,32.3-47.3,1.9-.5,2.8.2,2.7,2.2,0,1.1.3,2.3-.7,3.5v-.1Z"/>
  <g>
    <path class="cls-3" d="M163.37,141.07l3.3-7.32c3.54,2.58,8.82,4.38,13.86,4.38,5.76,0,8.1-1.92,8.1-4.5,0-7.86-24.42-2.46-24.42-18.06,0-7.14,5.76-13.08,17.7-13.08,5.28,0,10.68,1.26,14.58,3.72l-3,7.38c-3.9-2.22-7.92-3.3-11.64-3.3-5.76,0-7.98,2.16-7.98,4.8,0,7.74,24.42,2.4,24.42,17.82,0,7.02-5.82,13.02-17.82,13.02-6.66,0-13.38-1.98-17.1-4.86Z"/>
    <path class="cls-3" d="M239.45,129.07c0,10.14-7.02,16.62-16.08,16.62-4.02,0-7.32-1.26-9.72-3.9v15.06h-9.36v-43.92h8.94v3.72c2.34-2.82,5.82-4.2,10.14-4.2,9.06,0,16.08,6.48,16.08,16.62ZM229.97,129.07c0-5.58-3.54-8.94-8.22-8.94s-8.22,3.36-8.22,8.94,3.54,8.94,8.22,8.94,8.22-3.36,8.22-8.94Z"/>
    <path class="cls-3" d="M265.73,112.45v8.64c-.78-.06-1.38-.12-2.1-.12-5.16,0-8.58,2.82-8.58,9v15.24h-9.36v-32.28h8.94v4.26c2.28-3.12,6.12-4.74,11.1-4.74Z"/>
    <path class="cls-3" d="M268.61,129.07c0-9.72,7.5-16.62,17.76-16.62s17.7,6.9,17.7,16.62-7.44,16.62-17.7,16.62-17.76-6.9-17.76-16.62ZM294.59,129.07c0-5.58-3.54-8.94-8.22-8.94s-8.28,3.36-8.28,8.94,3.6,8.94,8.28,8.94,8.22-3.36,8.22-8.94Z"/>
    <path class="cls-3" d="M342.83,112.93v32.28h-8.88v-3.84c-2.46,2.82-6.06,4.32-10.02,4.32-8.1,0-13.8-4.56-13.8-14.52v-18.24h9.36v16.86c0,5.4,2.4,7.8,6.54,7.8s7.44-2.76,7.44-8.7v-15.96h9.36Z"/>
    <path class="cls-3" d="M372.35,143.65c-1.92,1.38-4.74,2.04-7.62,2.04-7.62,0-12.06-3.9-12.06-11.58v-13.26h-4.98v-7.2h4.98v-7.86h9.36v7.86h8.04v7.2h-8.04v13.14c0,2.76,1.5,4.26,4.02,4.26,1.38,0,2.76-.42,3.78-1.2l2.52,6.6Z"/>
    <path class="cls-4" d="M380.15,103.21h4.44v38.16h23.52v3.84h-27.96v-42Z"/>
    <path class="cls-4" d="M438.53,125.65v19.56h-4.08v-4.92c-1.92,3.24-5.64,5.22-10.86,5.22-7.14,0-11.52-3.72-11.52-9.18,0-4.86,3.12-8.94,12.18-8.94h10.02v-1.92c0-5.4-3.06-8.34-8.94-8.34-4.08,0-7.92,1.44-10.5,3.72l-1.92-3.18c3.18-2.7,7.86-4.26,12.84-4.26,8.16,0,12.78,4.08,12.78,12.24ZM434.27,135.73v-5.16h-9.9c-6.12,0-8.1,2.4-8.1,5.64,0,3.66,2.94,5.94,7.98,5.94s8.34-2.28,10.02-6.42Z"/>
    <path class="cls-4" d="M461.81,129.37l-7.44,6.84v9h-4.26v-44.52h4.26v30.18l18.84-17.22h5.28l-13.5,12.9,14.76,18.66h-5.22l-12.72-15.84Z"/>
    <path class="cls-4" d="M512.39,130.75h-26.4c.48,6.6,5.52,10.98,12.42,10.98,3.84,0,7.26-1.38,9.66-4.14l2.4,2.76c-2.82,3.36-7.2,5.16-12.18,5.16-9.84,0-16.56-6.72-16.56-16.08s6.54-16.02,15.42-16.02,15.3,6.54,15.3,16.02c0,.36-.06.84-.06,1.32ZM485.99,127.57h22.38c-.54-6.18-5.04-10.5-11.22-10.5s-10.62,4.32-11.16,10.5Z"/>
  </g>
</svg>