<?xml version="1.0" encoding="UTF-8"?>
<svg id="Layer_1_footer" data-name="Layer 1" xmlns="http://www.w3.org/2000/svg" viewBox="0 0 512.74 199.07">
  <defs>
    <style>
      .cls-1-footer { fill: #FFFFFF; }
      .cls-2-footer { fill: #84bb44; }
    </style>
  </defs>
  <path class="cls-1-footer" d="M29.8,150.17c9.8,17,24.4,25.3,43.8,24.4,22-1,40.6-20.6,41.9-42.5,1.3-21.6-13.9-42-35.7-47-2.1-.5-2.9-1.3-2.9-3.5.1-6.4,0-12.8,0-19.2,0-1-.5-2.5,1.3-2.7,1.6-.2,1.9,1.1,2.2,2.2,1.2,3.7,1.4,8.2,3.8,10.8,2.3,2.5,6.9,2.7,10.1,4.6,3.7,2.3,6.5,1.5,10-.6,8.3-5,6.3-5.7,13.9,1.6,2.3,2.2,4.5,4.5,6.8,6.8,1.2,1.2,1.4,2.4.6,3.9-1.7,3.1-3.2,6.2-4.9,9.2-.8,1.3-.7,2.4,0,3.8,2,3.5,3.5,7.1,4.6,10.9.5,1.7,1.4,2.3,3,2.7,3.1.8,6.1,1.8,9.2,2.6,1.8.5,2.5,1.5,2.5,3.3v15.4c0,1.8-.7,2.9-2.5,3.3-3.1.8-6.1,1.9-9.2,2.6-1.6.4-2.5,1.2-2.9,2.8-1.1,3.9-2.7,7.7-4.7,11.2-.8,1.4-.7,2.5,0,3.8,1.6,2.8,2.9,5.7,4.5,8.5,1.1,1.8.7,3.2-.7,4.6-3.5,3.4-6.9,6.8-10.3,10.3-1.4,1.5-2.9,1.7-4.7.6-2.7-1.6-5.5-3-8.1-4.5-1.5-.9-2.7-1-4.3-.1-3.4,1.9-6.9,3.4-10.7,4.4-1.6.4-2.4,1.4-2.8,2.9-.8,3.1-1.9,6.1-2.7,9.2-.5,1.8-1.5,2.6-3.3,2.6h-15.1c-1.8,0-2.8-.9-3.2-2.7-.8-3-1.9-5.9-2.7-8.9-.4-1.7-1.2-2.7-3-3.1-3.8-1-7.3-2.5-10.7-4.5-1.4-.8-2.6-.8-4,0-2.8,1.7-5.8,3.2-8.6,4.8-1.6.9-2.8.9-4.1-.5-3.6-3.7-7.2-7.3-10.9-10.9-1.3-1.3-1.5-2.5-.6-4.1,1.6-2.9,3.1-5.8,4.7-8.7.8-1.3.7-2.4,0-3.8-2-3.7-3.7-7.4-4.9-11.5-.4-1.5-1.3-2.2-2.8-2.6-3.1-.8-6.1-1.8-9.2-2.6-1.8-.5-2.5-1.5-2.5-3.3v-15.4c0-2,.9-3,2.7-3.4,3-.7,6-1.7,9-2.5,1.5-.4,2.3-1.1,2.8-2.6,1.2-4.1,2.9-8,5.1-11.7.7-1.2.4-2.1-.2-3.2-1.6-3-3.1-6-4.8-9-.9-1.7-.9-3,.5-4.4,3.7-3.5,7.3-7,10.8-10.5,1.6-1.5,3.1-1.6,4.9-.5,2.5,1.6,5.3,2.9,7.8,4.5,1.4.9,2.6,1,4,.2,3.5-1.9,7.2-3.4,11-4.5,1.6-.4,2.4-1.3,2.8-2.9.8-3.2,1.8-6.3,2.8-9.5.3-1.1.6-2.1,2-2.2,1.6,0,1.6,1.4,1.6,2.3.1,7.1.2,14.1.2,21.2,0,1.4-1.1,1.6-2.2,1.9-18.2,4.5-30.1,15.7-35.1,33.8-3,10.8-1.4,21.3,3.8,31.4l.3.5Z"/>
  <path class="cls-2-footer" d="M73.3,84.17c0,12.4,0,24.5.4,36.6,0,2.2-.2,4.1-2.6,4.9-2.5.9-4.6-1-4.6-4.3v-20.6c0-11.3,0-22.7.1-34,0-5.3-1.9-10-4-14.7-.8-1.9-2.3-2-4-2-8.6,0-16.5-2.1-23.1-7.9-3.3-2.8-5.7-6.4-7.6-10.2-2.9-5.9-5.9-11.8-11-16.2-.3-.2-.4-.6-.9-1.4,12-3.6,23.5-3.4,34.4,2.5,10.1,5.4,15.2,14.3,15.8,25.8-4.4-5.1-8.8-10-15.2-12.7,7.3,6,13.1,13.3,18,22.3,5.7-13.2,13.8-23.6,24.9-31.6-9.8,4.4-17.1,11.6-23.1,20.5-.4-2.6-.4-5.1.1-7.5,3.7-18,15.4-28,32.6-32.2,7.7-1.9,15.5-1.8,23.3-.6,1.2.2,2.4.6,3.4.8.4.8.2,1.2-.2,1.6-5.4,5.3-8.8,11.8-11.4,18.7-6.6,17.7-19.7,26.1-38.1,27.2-2.4.1-3.6,1-4.4,3.2-2.3,5.8-3.2,11.7-3,17.9.1,4.5,0,9.1,0,13.9h.2Z"/>
  <path fill="#FFFFFF" d="M62.6,93.87c-13.5,3.7-22.9,11.6-27.2,24.9-7.2,22.2,9.6,45.6,32.9,46.7,18.7.9,34.6-12.8,37.5-30.7,2.8-17.5-8-34.6-25.2-39.9-4.2-1.3-4.5-1.8-3.4-6.5.8-.5,1.6-.2,2.5,0,20.4,5.1,33.7,23.4,32.3,44.5-1.3,19.4-17.5,35.7-36.9,38.2-20.3,2.6-43.2-10.9-46.8-35.5-3.4-23.4,11.9-42.5,32.3-47.3,1.9-.5,2.8.2,2.7,2.2,0,1.1.3,2.3-.7,3.5v-.1Z"/>
  <g>
    <path class="cls-1-footer" d="M177.34,113.06v11.1h19.44v7.8h-19.44v15.3h-9.72v-42h31.74v7.8h-22.02Z"/>
    <path class="cls-1-footer" d="M232.96,128.84v18.42h-8.76v-4.02c-1.74,2.94-5.1,4.5-9.84,4.5-7.56,0-12.06-4.2-12.06-9.78s4.02-9.66,13.86-9.66h7.44c0-4.02-2.4-6.36-7.44-6.36-3.42,0-6.96,1.14-9.3,3l-3.36-6.54c3.54-2.52,8.76-3.9,13.92-3.9,9.84,0,15.54,4.56,15.54,14.34ZM223.6,137.06v-3.3h-6.42c-4.38,0-5.76,1.62-5.76,3.78,0,2.34,1.98,3.9,5.28,3.9,3.12,0,5.82-1.44,6.9-4.38Z"/>
    <path class="cls-1-footer" d="M261.46,114.5v8.64c-.78-.06-1.38-.12-2.1-.12-5.16,0-8.58,2.82-8.58,9v15.24h-9.36v-32.28h8.94v4.26c2.28-3.12,6.12-4.74,11.1-4.74Z"/>
    <path class="cls-1-footer" d="M321.58,128.78v18.48h-9.36v-17.04c0-5.22-2.34-7.62-6.12-7.62-4.2,0-7.14,2.7-7.14,8.46v16.2h-9.36v-17.04c0-5.22-2.22-7.62-6.12-7.62-4.14,0-7.08,2.7-7.08,8.46v16.2h-9.36v-32.28h8.94v3.72c2.4-2.76,6-4.2,10.14-4.2,4.5,0,8.34,1.74,10.62,5.28,2.58-3.3,6.78-5.28,11.64-5.28,7.68,0,13.2,4.44,13.2,14.28Z"/>
    <path class="cls-2-footer" d="M390.16,105.26l-14.16,42h-4.68l-12.3-35.82-12.36,35.82h-4.62l-14.16-42h4.56l12.12,36.12,12.54-36.12h4.14l12.36,36.3,12.3-36.3h4.26Z"/>
    <path class="cls-2-footer" d="M391.78,131.48c0-9.36,6.84-16.02,16.08-16.02s16.02,6.66,16.02,16.02-6.78,16.08-16.02,16.08-16.08-6.72-16.08-16.08ZM419.56,131.48c0-7.38-4.98-12.3-11.7-12.3s-11.76,4.92-11.76,12.3,5.04,12.3,11.76,12.3,11.7-4.92,11.7-12.3Z"/>
    <path class="cls-2-footer" d="M448.48,115.46v4.14c-.36,0-.72-.06-1.02-.06-6.6,0-10.62,4.2-10.62,11.64v16.08h-4.26v-31.56h4.08v6.18c1.98-4.2,6-6.42,11.82-6.42Z"/>
    <path class="cls-2-footer" d="M467.86,131.42l-7.44,6.84v9h-4.26v-44.52h4.26v30.18l18.84-17.22h5.28l-13.5,12.9,14.76,18.66h-5.22l-12.72-15.84Z"/>
    <path class="cls-2-footer" d="M486.88,143.66l1.92-3.36c2.52,1.98,6.78,3.54,11.22,3.54,6,0,8.46-2.04,8.46-5.16,0-8.22-20.46-1.74-20.46-14.22,0-5.16,4.44-9,12.48-9,4.08,0,8.52,1.14,11.16,2.94l-1.86,3.42c-2.76-1.92-6.06-2.7-9.3-2.7-5.7,0-8.22,2.22-8.22,5.22,0,8.52,20.46,2.1,20.46,14.22,0,5.46-4.8,9-13.02,9-5.22,0-10.26-1.68-12.84-3.9Z"/>
  </g>
</svg>
