<?xml version="1.0" encoding="UTF-8"?>
<svg xmlns="http://www.w3.org/2000/svg" version="1.1" viewBox="0 0 512.5 199.1">
  <defs>
    <style>
      .cls-1 {
        fill: #84bb44;
      }

      .cls-2 {
        fill: #fff;
      }

      .cls-3 {
        fill: #99ca3c;
      }
    </style>
  </defs>
  <!-- Generator: Adobe Illustrator 28.7.1, SVG Export Plug-In . SVG Version: 1.2.0 Build 142)  -->
  <g>
    <g id="Layer_1">
      <path class="cls-2" d="M29.8,150.2c9.8,17,24.4,25.3,43.8,24.4,22-1,40.6-20.6,41.9-42.5,1.3-21.6-13.9-42-35.7-47-2.1-.5-2.9-1.3-2.9-3.5,0-6.4,0-12.8,0-19.2s-.5-2.5,1.3-2.7c1.6-.2,1.9,1.1,2.2,2.2,1.2,3.7,1.4,8.2,3.8,10.8,2.3,2.5,6.9,2.7,10.1,4.6,3.7,2.3,6.5,1.5,10-.6,8.3-5,6.3-5.7,13.9,1.6,2.3,2.2,4.5,4.5,6.8,6.8s1.4,2.4.6,3.9c-1.7,3.1-3.2,6.2-4.9,9.2-.8,1.3-.7,2.4,0,3.8,2,3.5,3.5,7.1,4.6,10.9.5,1.7,1.4,2.3,3,2.7,3.1.8,6.1,1.8,9.2,2.6,1.8.5,2.5,1.5,2.5,3.3v15.4c0,1.8-.7,2.9-2.5,3.3-3.1.8-6.1,1.9-9.2,2.6-1.6.4-2.5,1.2-2.9,2.8-1.1,3.9-2.7,7.7-4.7,11.2-.8,1.4-.7,2.5,0,3.8,1.6,2.8,2.9,5.7,4.5,8.5,1.1,1.8.7,3.2-.7,4.6-3.5,3.4-6.9,6.8-10.3,10.3-1.4,1.5-2.9,1.7-4.7.6-2.7-1.6-5.5-3-8.1-4.5-1.5-.9-2.7-1-4.3-.1-3.4,1.9-6.9,3.4-10.7,4.4-1.6.4-2.4,1.4-2.8,2.9-.8,3.1-1.9,6.1-2.7,9.2-.5,1.8-1.5,2.6-3.3,2.6h-15.1c-1.8,0-2.8-.9-3.2-2.7-.8-3-1.9-5.9-2.7-8.9-.4-1.7-1.2-2.7-3-3.1-3.8-1-7.3-2.5-10.7-4.5-1.4-.8-2.6-.8-4,0-2.8,1.7-5.8,3.2-8.6,4.8-1.6.9-2.8.9-4.1-.5-3.6-3.7-7.2-7.3-10.9-10.9-1.3-1.3-1.5-2.5-.6-4.1,1.6-2.9,3.1-5.8,4.7-8.7.8-1.3.7-2.4,0-3.8-2-3.7-3.7-7.4-4.9-11.5-.4-1.5-1.3-2.2-2.8-2.6-3.1-.8-6.1-1.8-9.2-2.6C.7,139.5,0,138.5,0,136.7v-15.4C0,119.3.9,118.3,2.7,117.9c3-.7,6-1.7,9-2.5s2.3-1.1,2.8-2.6c1.2-4.1,2.9-8,5.1-11.7.7-1.2.4-2.1-.2-3.2-1.6-3-3.1-6-4.8-9-.9-1.7-.9-3,.5-4.4,3.7-3.5,7.3-7,10.8-10.5,1.6-1.5,3.1-1.6,4.9-.5,2.5,1.6,5.3,2.9,7.8,4.5,1.4.9,2.6,1,4,.2,3.5-1.9,7.2-3.4,11-4.5,1.6-.4,2.4-1.3,2.8-2.9.8-3.2,1.8-6.3,2.8-9.5.3-1.1.6-2.1,2-2.2,1.6,0,1.6,1.4,1.6,2.3,0,7.1.2,14.1.2,21.2s-1.1,1.6-2.2,1.9c-18.2,4.5-30.1,15.7-35.1,33.8-3,10.8-1.4,21.3,3.8,31.4l.3.5h0Z"/>
      <path class="cls-1" d="M73.3,84.2c0,12.4,0,24.5.4,36.6,0,2.2-.2,4.1-2.6,4.9-2.5.9-4.6-1-4.6-4.3v-20.6c0-11.3,0-22.7,0-34,0-5.3-1.9-10-4-14.7-.8-1.9-2.3-2-4-2-8.6,0-16.5-2.1-23.1-7.9-3.3-2.8-5.7-6.4-7.6-10.2-2.9-5.9-5.9-11.8-11-16.2-.3-.2-.4-.6-.9-1.4,12-3.6,23.5-3.4,34.4,2.5,10.1,5.4,15.2,14.3,15.8,25.8-4.4-5.1-8.8-10-15.2-12.7,7.3,6,13.1,13.3,18,22.3,5.7-13.2,13.8-23.6,24.9-31.6-9.8,4.4-17.1,11.6-23.1,20.5-.4-2.6-.4-5.1,0-7.5,3.7-18,15.4-28,32.6-32.2,7.7-1.9,15.5-1.8,23.3-.6,1.2.2,2.4.6,3.4.8.4.8.2,1.2-.2,1.6-5.4,5.3-8.8,11.8-11.4,18.7-6.6,17.7-19.7,26.1-38.1,27.2-2.4,0-3.6,1-4.4,3.2-2.3,5.8-3.2,11.7-3,17.9,0,4.5,0,9.1,0,13.9,0,0,.2,0,.2,0Z"/>
      <path class="cls-2" d="M62.6,93.9c-13.5,3.7-22.9,11.6-27.2,24.9-7.2,22.2,9.6,45.6,32.9,46.7,18.7.9,34.6-12.8,37.5-30.7,2.8-17.5-8-34.6-25.2-39.9-4.2-1.3-4.5-1.8-3.4-6.5.8-.5,1.6-.2,2.5,0,20.4,5.1,33.7,23.4,32.3,44.5-1.3,19.4-17.5,35.7-36.9,38.2-20.3,2.6-43.2-10.9-46.8-35.5-3.4-23.4,11.9-42.5,32.3-47.3,1.9-.5,2.8.2,2.7,2.2,0,1.1.3,2.3-.7,3.5h0q0,0,0,0Z"/>
      <g>
        <path class="cls-2" d="M163.4,141.1l3.3-7.3c3.5,2.6,8.8,4.4,13.9,4.4s8.1-1.9,8.1-4.5c0-7.9-24.4-2.5-24.4-18.1s5.8-13.1,17.7-13.1,10.7,1.3,14.6,3.7l-3,7.4c-3.9-2.2-7.9-3.3-11.6-3.3-5.8,0-8,2.2-8,4.8,0,7.7,24.4,2.4,24.4,17.8s-5.8,13-17.8,13-13.4-2-17.1-4.9Z"/>
        <path class="cls-2" d="M239.4,129.1c0,10.1-7,16.6-16.1,16.6s-7.3-1.3-9.7-3.9v15.1h-9.4v-43.9h8.9v3.7c2.3-2.8,5.8-4.2,10.1-4.2,9.1,0,16.1,6.5,16.1,16.6ZM230,129.1c0-5.6-3.5-8.9-8.2-8.9s-8.2,3.4-8.2,8.9,3.5,8.9,8.2,8.9,8.2-3.4,8.2-8.9Z"/>
        <path class="cls-2" d="M265.7,112.4v8.6c-.8,0-1.4-.1-2.1-.1-5.2,0-8.6,2.8-8.6,9v15.2h-9.4v-32.3h8.9v4.3c2.3-3.1,6.1-4.7,11.1-4.7h0Z"/>
        <path class="cls-2" d="M268.6,129.1c0-9.7,7.5-16.6,17.8-16.6s17.7,6.9,17.7,16.6-7.4,16.6-17.7,16.6-17.8-6.9-17.8-16.6ZM294.6,129.1c0-5.6-3.5-8.9-8.2-8.9s-8.3,3.4-8.3,8.9,3.6,8.9,8.3,8.9,8.2-3.4,8.2-8.9Z"/>
        <path class="cls-2" d="M342.8,112.9v32.3h-8.9v-3.8c-2.5,2.8-6.1,4.3-10,4.3-8.1,0-13.8-4.6-13.8-14.5v-18.2h9.4v16.9c0,5.4,2.4,7.8,6.5,7.8s7.4-2.8,7.4-8.7v-16h9.4Z"/>
        <path class="cls-2" d="M372.4,143.6c-1.9,1.4-4.7,2-7.6,2-7.6,0-12.1-3.9-12.1-11.6v-13.3h-5v-7.2h5v-7.9h9.4v7.9h8v7.2h-8v13.1c0,2.8,1.5,4.3,4,4.3s2.8-.4,3.8-1.2l2.5,6.6h0Z"/>
        <path class="cls-3" d="M380.1,103.2h4.4v38.2h23.5v3.8h-28s0-42,0-42Z"/>
        <path class="cls-3" d="M438.5,125.7v19.6h-4.1v-4.9c-1.9,3.2-5.6,5.2-10.9,5.2s-11.5-3.7-11.5-9.2,3.1-8.9,12.2-8.9h10v-1.9c0-5.4-3.1-8.3-8.9-8.3s-7.9,1.4-10.5,3.7l-1.9-3.2c3.2-2.7,7.9-4.3,12.8-4.3,8.2,0,12.8,4.1,12.8,12.2h0ZM434.3,135.7v-5.2h-9.9c-6.1,0-8.1,2.4-8.1,5.6s2.9,5.9,8,5.9,8.3-2.3,10-6.4Z"/>
        <path class="cls-3" d="M461.8,129.4l-7.4,6.8v9h-4.3v-44.5h4.3v30.2l18.8-17.2h5.3l-13.5,12.9,14.8,18.7h-5.2l-12.7-15.8Z"/>
        <path class="cls-3" d="M512.4,130.8h-26.4c.5,6.6,5.5,11,12.4,11s7.3-1.4,9.7-4.1l2.4,2.8c-2.8,3.4-7.2,5.2-12.2,5.2-9.8,0-16.6-6.7-16.6-16.1s6.5-16,15.4-16,15.3,6.5,15.3,16,0,.8,0,1.3h0ZM486,127.6h22.4c-.5-6.2-5-10.5-11.2-10.5s-10.6,4.3-11.2,10.5Z"/>
      </g>
    </g>
  </g>
</svg>